<?xml version="1.0"?>
<svg xmlns="http://www.w3.org/2000/svg" xmlns:xlink="http://www.w3.org/1999/xlink" xmlns:svgjs="http://svgjs.com/svgjs" version="1.1" width="512" height="512" x="0" y="0" viewBox="0 0 95.098 95.098" style="enable-background:new 0 0 512 512" xml:space="preserve" class=""><g>
<g xmlns="http://www.w3.org/2000/svg">
	<g>
		<path d="M75.593,32.792c-0.299-0.181-0.671-0.193-0.981-0.031L48.174,46.599c-0.371,0.193-0.87,0.193-1.237,0.001L20.485,32.76    c-0.31-0.162-0.683-0.15-0.981,0.031c-0.299,0.181-0.482,0.505-0.482,0.855v5.032c0,0.365,0.199,0.702,0.52,0.877l27.532,15.071    c0.15,0.081,0.315,0.123,0.48,0.123s0.331-0.042,0.479-0.124l27.521-15.07c0.32-0.175,0.52-0.512,0.52-0.877v-5.031    C76.076,33.297,75.893,32.973,75.593,32.792z" fill="#a0caf0" data-original="#000000" style="" class=""/>
		<path d="M92.961,0H2.137C0.957,0,0,0.957,0,2.137v90.824c0,1.18,0.957,2.137,2.137,2.137h90.824c1.18,0,2.137-0.957,2.137-2.137    V2.137C95.098,0.957,94.141,0,92.961,0z M79.632,66.879c0,0.736-0.597,1.333-1.333,1.333h-61.5c-0.736,0-1.333-0.597-1.333-1.333    v-38.66c0-0.736,0.597-1.333,1.333-1.333h61.5c0.736,0,1.333,0.597,1.333,1.333V66.879z" fill="#a0caf0" data-original="#000000" style="" class=""/>
	</g>
</g>
<g xmlns="http://www.w3.org/2000/svg">
</g>
<g xmlns="http://www.w3.org/2000/svg">
</g>
<g xmlns="http://www.w3.org/2000/svg">
</g>
<g xmlns="http://www.w3.org/2000/svg">
</g>
<g xmlns="http://www.w3.org/2000/svg">
</g>
<g xmlns="http://www.w3.org/2000/svg">
</g>
<g xmlns="http://www.w3.org/2000/svg">
</g>
<g xmlns="http://www.w3.org/2000/svg">
</g>
<g xmlns="http://www.w3.org/2000/svg">
</g>
<g xmlns="http://www.w3.org/2000/svg">
</g>
<g xmlns="http://www.w3.org/2000/svg">
</g>
<g xmlns="http://www.w3.org/2000/svg">
</g>
<g xmlns="http://www.w3.org/2000/svg">
</g>
<g xmlns="http://www.w3.org/2000/svg">
</g>
<g xmlns="http://www.w3.org/2000/svg">
</g>
</g></svg>
